<svg xmlns="http://www.w3.org/2000/svg" width="16" height="16" fill="none"><g clip-path="url(#a)"><path fill="#2574F5" d="M0 0h16v16H0z"/><path fill="#0A0D15" d="m3 3 12 5-12 5V3Z"/><g filter="url(#b)"><path fill="#F7F7F7" fill-rule="evenodd" d="m11.506 9.708 1.122 1.094-.857.873-1.158-1.129c-.43.205-.989.31-1.706.31-2.01 0-2.939-.882-2.939-2.901 0-1.96 1.009-2.9 2.94-2.9 1.854 0 2.942.94 2.944 2.9 0 .711-.101 1.299-.346 1.753ZM8.907 6.555c-.857 0-1.396.507-1.396 1.4 0 .892.533 1.411 1.396 1.4.845-.009 1.388-.437 1.396-1.4.009-.895-.538-1.4-1.396-1.4ZM5.59 5.107H3.965v5.644H5.59V5.107Z" clip-rule="evenodd"/></g></g><defs><clipPath id="a"><path fill="#fff" d="M0 0h16v16H0z"/></clipPath><filter id="b" width="19.927" height="27.442" x="-1.667" y="3.945" color-interpolation-filters="sRGB" filterUnits="userSpaceOnUse"><feFlood flood-opacity="0" result="BackgroundImageFix"/><feColorMatrix in="SourceAlpha" result="hardAlpha" values="0 0 0 0 0 0 0 0 0 0 0 0 0 0 0 0 0 0 127 0"/><feOffset dy="1.162"/><feGaussianBlur stdDeviation="2.324"/><feComposite in2="hardAlpha" operator="out"/><feColorMatrix values="0 0 0 0 0 0 0 0 0 0 0 0 0 0 0 0 0 0 0.25 0"/><feBlend in2="BackgroundImageFix" result="effect1_dropShadow_1_2"/><feBlend in="SourceGraphic" in2="effect1_dropShadow_1_2" result="shape"/></filter></defs></svg>